<svg width="301" height="80" viewBox="0 0 301 80" fill="none" xmlns="http://www.w3.org/2000/svg">
<g filter="url(#filter0_b_51_2977)">
<mask id="path-1-inside-1_51_2977" fill="white">
<path fill-rule="evenodd" clip-rule="evenodd" d="M301 16L290.446 7.6L281.811 0H230V6.59794H190L180 0H80L70 6.59794H30L0 72.5773H70L80 79.1753H180L190 72.5773H230V80H281.811L290.446 72.8L301 64V16Z"/>
</mask>
<path fill-rule="evenodd" clip-rule="evenodd" d="M301 16L290.446 7.6L281.811 0H230V6.59794H190L180 0H80L70 6.59794H30L0 72.5773H70L80 79.1753H180L190 72.5773H230V80H281.811L290.446 72.8L301 64V16Z" fill="url(#paint0_linear_51_2977)" fill-opacity="0.4"/>
<path d="M290.446 7.6L289.785 8.35067L289.804 8.36702L289.823 8.38243L290.446 7.6ZM301 16H302V15.5178L301.623 15.2176L301 16ZM281.811 0L282.472 -0.750667L282.188 -1H281.811V0ZM230 0V-1H229V0H230ZM230 6.59794V7.59794H231V6.59794H230ZM190 6.59794L189.449 7.43263L189.7 7.59794H190V6.59794ZM180 0L180.551 -0.834689L180.3 -1H180V0ZM80 0V-1H79.6998L79.4493 -0.834689L80 0ZM70 6.59794V7.59794H70.3002L70.5507 7.43263L70 6.59794ZM30 6.59794V5.59794H29.3562L29.0897 6.18403L30 6.59794ZM0 72.5773L-0.910318 72.1634L-1.55321 73.5773H0V72.5773ZM70 72.5773L70.5507 71.7426L70.3002 71.5773H70V72.5773ZM80 79.1753L79.4493 80.0099L79.6998 80.1753H80V79.1753ZM180 79.1753V80.1753H180.3L180.551 80.0099L180 79.1753ZM190 72.5773V71.5773H189.7L189.449 71.7426L190 72.5773ZM230 72.5773H231V71.5773H230V72.5773ZM230 80H229V81H230V80ZM281.811 80V81H282.173L282.451 80.768L281.811 80ZM290.446 72.8L291.086 73.568L291.086 73.568L290.446 72.8ZM301 64L301.64 64.768L302 64.4682V64H301ZM289.823 8.38243L300.377 16.7824L301.623 15.2176L291.069 6.81757L289.823 8.38243ZM281.15 0.750667L289.785 8.35067L291.107 6.84933L282.472 -0.750667L281.15 0.750667ZM230 1H281.811V-1H230V1ZM231 6.59794V0H229V6.59794H231ZM190 7.59794H230V5.59794H190V7.59794ZM190.551 5.76325L180.551 -0.834689L179.449 0.834689L189.449 7.43263L190.551 5.76325ZM180 -1H80V1H180V-1ZM79.4493 -0.834689L69.4493 5.76325L70.5507 7.43263L80.5507 0.834689L79.4493 -0.834689ZM30 7.59794H70V5.59794H30V7.59794ZM0.910318 72.9912L30.9103 7.01185L29.0897 6.18403L-0.910318 72.1634L0.910318 72.9912ZM70 71.5773H0V73.5773H70V71.5773ZM80.5507 78.3406L70.5507 71.7426L69.4493 73.412L79.4493 80.0099L80.5507 78.3406ZM180 78.1753H80V80.1753H180V78.1753ZM189.449 71.7426L179.449 78.3406L180.551 80.0099L190.551 73.412L189.449 71.7426ZM230 71.5773H190V73.5773H230V71.5773ZM231 80V72.5773H229V80H231ZM281.811 79H230V81H281.811V79ZM289.806 72.032L281.17 79.232L282.451 80.768L291.086 73.568L289.806 72.032ZM300.36 63.232L289.806 72.032L291.086 73.568L301.64 64.768L300.36 63.232ZM300 16V64H302V16H300Z" fill="white" fill-opacity="0.3" mask="url(#path-1-inside-1_51_2977)"/>
</g>
<g filter="url(#filter1_i_51_2977)">
<path d="M281.922 66.9829L12.5437 66.8897L35.6969 13.0169H281.906L286.199 17.3842L290.983 22.2503V57.7634L286.2 62.8602L281.922 66.9829Z" stroke="white" stroke-width="2.0339"/>
</g>
<defs>
<filter id="filter0_b_51_2977" x="-27.1186" y="-27.1186" width="355.237" height="134.237" filterUnits="userSpaceOnUse" color-interpolation-filters="sRGB">
<feFlood flood-opacity="0" result="BackgroundImageFix"/>
<feGaussianBlur in="BackgroundImageFix" stdDeviation="13.5593"/>
<feComposite in2="SourceAlpha" operator="in" result="effect1_backgroundBlur_51_2977"/>
<feBlend mode="normal" in="SourceGraphic" in2="effect1_backgroundBlur_51_2977" result="shape"/>
</filter>
<filter id="filter1_i_51_2977" x="11" y="12" width="281" height="70.07" filterUnits="userSpaceOnUse" color-interpolation-filters="sRGB">
<feFlood flood-opacity="0" result="BackgroundImageFix"/>
<feBlend mode="normal" in="SourceGraphic" in2="BackgroundImageFix" result="shape"/>
<feColorMatrix in="SourceAlpha" type="matrix" values="0 0 0 0 0 0 0 0 0 0 0 0 0 0 0 0 0 0 127 0" result="hardAlpha"/>
<feOffset dy="14.07"/>
<feGaussianBlur stdDeviation="10"/>
<feComposite in2="hardAlpha" operator="arithmetic" k2="-1" k3="1"/>
<feColorMatrix type="matrix" values="0 0 0 0 0 0 0 0 0 0.666667 0 0 0 0 1 0 0 0 0.6 0"/>
<feBlend mode="normal" in2="shape" result="effect1_innerShadow_51_2977"/>
</filter>
<linearGradient id="paint0_linear_51_2977" x1="0" y1="68.0597" x2="204.415" y2="68.0597" gradientUnits="userSpaceOnUse">
<stop stop-color="#C900E8"/>
<stop offset="1" stop-color="#00AAFF"/>
</linearGradient>
</defs>
</svg>
