<svg width="301" height="80" viewBox="0 0 301 80" fill="none" xmlns="http://www.w3.org/2000/svg">
<g filter="url(#filter0_b_51_2984)">
<mask id="path-1-inside-1_51_2984" fill="white">
<path fill-rule="evenodd" clip-rule="evenodd" d="M0 64L10.554 72.4L19.1892 80H71V73.4021H111L121 80H221L231 73.4021H271L301 7.42268H231L221 0.824745H121L111 7.42268H71V0H19.1892L10.554 7.2L0 16V64Z"/>
</mask>
<path fill-rule="evenodd" clip-rule="evenodd" d="M0 64L10.554 72.4L19.1892 80H71V73.4021H111L121 80H221L231 73.4021H271L301 7.42268H231L221 0.824745H121L111 7.42268H71V0H19.1892L10.554 7.2L0 16V64Z" fill="url(#paint0_linear_51_2984)" fill-opacity="0.4"/>
<path d="M10.554 72.4L11.2147 71.6493L11.1961 71.633L11.1768 71.6176L10.554 72.4ZM0 64H-1V64.4822L-0.622739 64.7824L0 64ZM19.1892 80L18.5285 80.7507L18.8118 81H19.1892V80ZM71 80V81H72V80H71ZM71 73.4021V72.4021H70V73.4021H71ZM111 73.4021L111.551 72.5674L111.3 72.4021H111V73.4021ZM121 80L120.449 80.8347L120.7 81H121V80ZM221 80V81H221.3L221.551 80.8347L221 80ZM231 73.4021V72.4021H230.7L230.449 72.5674L231 73.4021ZM271 73.4021V74.4021H271.644L271.91 73.816L271 73.4021ZM301 7.42268L301.91 7.83659L302.553 6.42268H301V7.42268ZM231 7.42268L230.449 8.25737L230.7 8.42268H231V7.42268ZM221 0.824745L221.551 -0.00994333L221.3 -0.175255H221V0.824745ZM121 0.824745V-0.175255H120.7L120.449 -0.00994333L121 0.824745ZM111 7.42268V8.42268H111.3L111.551 8.25737L111 7.42268ZM71 7.42268H70V8.42268H71V7.42268ZM71 0H72V-1H71V0ZM19.1892 0V-1H18.827L18.5488 -0.768044L19.1892 0ZM10.554 7.2L9.91365 6.43195L9.91365 6.43195L10.554 7.2ZM0 16L-0.640398 15.232L-1 15.5318V16H0ZM11.1768 71.6176L0.622739 63.2176L-0.622739 64.7824L9.93131 73.1824L11.1768 71.6176ZM19.8499 79.2493L11.2147 71.6493L9.89337 73.1507L18.5285 80.7507L19.8499 79.2493ZM71 79H19.1892V81H71V79ZM70 73.4021V80H72V73.4021H70ZM111 72.4021H71V74.4021H111V72.4021ZM110.449 74.2368L120.449 80.8347L121.551 79.1653L111.551 72.5674L110.449 74.2368ZM121 81H221V79H121V81ZM221.551 80.8347L231.551 74.2368L230.449 72.5674L220.449 79.1653L221.551 80.8347ZM271 72.4021H231V74.4021H271V72.4021ZM300.09 7.00877L270.09 72.9882L271.91 73.816L301.91 7.83659L300.09 7.00877ZM231 8.42268H301V6.42268H231V8.42268ZM220.449 1.65943L230.449 8.25737L231.551 6.588L221.551 -0.00994333L220.449 1.65943ZM121 1.82475H221V-0.175255H121V1.82475ZM111.551 8.25737L121.551 1.65943L120.449 -0.00994333L110.449 6.588L111.551 8.25737ZM71 8.42268H111V6.42268H71V8.42268ZM70 0V7.42268H72V0H70ZM19.1892 1H71V-1H19.1892V1ZM11.1944 7.96804L19.8296 0.768044L18.5488 -0.768044L9.91365 6.43195L11.1944 7.96804ZM0.640398 16.768L11.1944 7.96804L9.91365 6.43195L-0.640398 15.232L0.640398 16.768ZM1 64V16H-1V64H1Z" fill="white" fill-opacity="0.3" mask="url(#path-1-inside-1_51_2984)"/>
</g>
<g filter="url(#filter1_i_51_2984)">
<path d="M19.0779 13.0171L288.456 13.1103L265.303 66.9831H19.0941L14.8008 62.6158L10.0169 57.7497V22.2366L14.7998 17.1398L19.0779 13.0171Z" stroke="white" stroke-width="2.0339"/>
</g>
<defs>
<filter id="filter0_b_51_2984" x="-27.1186" y="-27.1186" width="355.237" height="134.237" filterUnits="userSpaceOnUse" color-interpolation-filters="sRGB">
<feFlood flood-opacity="0" result="BackgroundImageFix"/>
<feGaussianBlur in="BackgroundImageFix" stdDeviation="13.5593"/>
<feComposite in2="SourceAlpha" operator="in" result="effect1_backgroundBlur_51_2984"/>
<feBlend mode="normal" in="SourceGraphic" in2="effect1_backgroundBlur_51_2984" result="shape"/>
</filter>
<filter id="filter1_i_51_2984" x="9" y="12" width="281" height="70.07" filterUnits="userSpaceOnUse" color-interpolation-filters="sRGB">
<feFlood flood-opacity="0" result="BackgroundImageFix"/>
<feBlend mode="normal" in="SourceGraphic" in2="BackgroundImageFix" result="shape"/>
<feColorMatrix in="SourceAlpha" type="matrix" values="0 0 0 0 0 0 0 0 0 0 0 0 0 0 0 0 0 0 127 0" result="hardAlpha"/>
<feOffset dy="14.07"/>
<feGaussianBlur stdDeviation="10"/>
<feComposite in2="hardAlpha" operator="arithmetic" k2="-1" k3="1"/>
<feColorMatrix type="matrix" values="0 0 0 0 0 0 0 0 0 0.666667 0 0 0 0 1 0 0 0 0.6 0"/>
<feBlend mode="normal" in2="shape" result="effect1_innerShadow_51_2984"/>
</filter>
<linearGradient id="paint0_linear_51_2984" x1="301" y1="11.9403" x2="96.5852" y2="11.9403" gradientUnits="userSpaceOnUse">
<stop stop-color="#C900E8"/>
<stop offset="1" stop-color="#00AAFF"/>
</linearGradient>
</defs>
</svg>
