<svg width="333" height="69" viewBox="0 0 333 69" fill="none" xmlns="http://www.w3.org/2000/svg">
<path d="M26.533 49.4635L25.1704 61.2299L13.837 54.1035L9.77089 51.617L1.09787 46.2888C0.340872 45.8226 -0.091698 44.9345 0.0164444 44.0243L1.87649 27.8621L3.19583 16.4065L4.86122 2.04264C5.05588 0.377577 6.87267 -0.532655 8.27852 0.333175L15.1996 4.57352L13.8587 16.3399H13.837L13.5126 19.1372L13.1233 22.5118L11.804 33.9674L11.4795 36.7203L11.1119 39.8284L11.1335 39.8506L15.178 42.3371L26.533 49.4635Z" fill="url(#paint0_linear_1560_3227)"/>
<path d="M46.3354 24.1939L41.2738 66.0383C41.0686 67.721 39.1534 68.6287 37.6714 67.7431L30.2386 63.4037L32.6326 44.6069L26.6134 41.1088L26.2714 43.8542L15.7378 37.6993L16.0798 34.9539L17.4706 23.5297L17.881 20.1645L18.223 17.3527L19.4998 6.8584L30.0562 13.0354L28.7794 23.4633L28.4374 26.2751L28.027 29.6625L34.0462 33.1606L34.4566 29.7732L36.0754 16.5557L45.1954 21.9135C45.9934 22.4006 46.4494 23.2862 46.3354 24.1939Z" fill="url(#paint1_linear_1560_3227)"/>
<path d="M68.3003 13.1924H78.2112V42.9253H90.1044V51.3325H68.3003V13.1924Z" fill="#D8D8D8"/>
<path d="M94.3193 25.7686H103.478V40.054C103.478 41.6944 103.934 42.9248 104.845 43.7678C105.575 44.4057 106.645 44.7475 108.058 44.7475C109.471 44.7475 110.564 44.3829 111.316 43.6538C112.182 42.7881 112.638 41.5805 112.638 40.054V25.7686H121.797V41.7172C121.797 44.6108 120.976 46.9119 119.336 48.5752C117.012 50.9675 113.321 52.175 108.286 52.175C102.863 52.175 99.0128 50.9447 96.7344 48.5068C95.1395 46.8208 94.3193 44.5652 94.3193 41.6944V25.7686Z" fill="#D8D8D8"/>
<path d="M147.429 43.0842V50.7395C145.492 51.6964 143.373 52.1749 141.072 52.1749C137.039 52.1749 133.667 50.8762 131.002 48.2789C128.359 45.7271 127.06 42.5373 127.06 38.7324C127.06 34.9275 128.427 31.51 131.184 28.8443C133.895 26.2469 137.336 24.9482 141.482 24.9482C143.533 24.9482 145.515 25.4267 147.429 26.3836V34.0618C145.857 32.9681 144.285 32.3985 142.69 32.3985C140.89 32.3985 139.409 32.9909 138.224 34.1757C137.039 35.3604 136.447 36.8186 136.447 38.573C136.447 40.3273 136.971 41.6716 138.042 42.8563C139.272 44.155 140.821 44.7929 142.735 44.7929C144.535 44.7929 146.107 44.2233 147.429 43.0842Z" fill="#D8D8D8"/>
<path d="M152.646 9.6377H161.806V34.9733L170.441 25.7686H182.858L170.782 37.5479L183.838 51.3321H171.124L161.806 40.8743V51.3321H152.646V9.6377Z" fill="#D8D8D8"/>
<path d="M193.042 13.1924V28.6854H212.613V13.1924H216.851V51.3325H212.613V32.6953H193.042V51.3325H188.804V13.1924H193.042Z" fill="#D8D8D8"/>
<path d="M229.792 27.5918V41.4216C229.792 43.8139 230.18 45.5227 230.932 46.5024C231.888 47.7327 233.278 48.3251 235.101 48.3251C236.924 48.3251 238.313 47.7099 239.27 46.5024C240.022 45.5227 240.41 43.8139 240.41 41.4216V27.5918H244.533V41.8772C244.533 45.0898 243.804 47.4593 242.369 49.0314C240.501 51.0136 238.086 52.016 235.101 52.016C232.116 52.016 229.701 51.0363 227.833 49.0314C226.375 47.4593 225.668 45.0898 225.668 41.8772V27.5918H229.792Z" fill="#D8D8D8"/>
<path d="M252.348 51.3094V27.5914H256.472V30.3255C258.158 28.1154 260.414 26.999 263.284 26.999C266.337 26.999 268.616 28.0926 270.097 30.2571C271.008 31.6014 271.464 33.6975 271.464 36.6138V51.3094H267.34V36.7277C267.34 34.7911 266.975 33.3329 266.246 32.376C265.358 31.2368 264.082 30.6672 262.35 30.6672C260.641 30.6672 259.206 31.2824 258.181 32.4899C257.042 33.8342 256.472 35.9531 256.472 38.8922V51.3094H252.348Z" fill="#D8D8D8"/>
<path d="M287.595 31.3732H283.471V51.3319H279.347V31.3732H276.818V27.5911H279.347V19.0244H283.471V27.5911H287.595V31.3732Z" fill="#D8D8D8"/>
<path d="M309.103 43.3803L312.543 45.2713C311.746 46.7978 310.766 48.0737 309.627 49.099C307.463 51.0356 304.82 52.0153 301.721 52.0153C298.622 52.0153 295.752 50.9673 293.45 48.8939C291.149 46.8206 289.987 43.722 289.987 39.5981C289.987 35.9755 291.035 32.9681 293.109 30.5985C295.182 28.2062 297.984 27.0215 301.493 27.0215C305.458 27.0215 308.465 28.4796 310.47 31.3732C312.065 33.6516 312.817 36.6363 312.703 40.2817H294.225C294.271 42.674 295 44.6334 296.458 46.1143C297.916 47.5953 299.67 48.3471 301.789 48.3471C303.658 48.3471 305.275 47.7775 306.665 46.6383C307.713 45.727 308.533 44.6334 309.103 43.3803ZM294.521 36.8641H308.488C308.146 34.9958 307.326 33.4921 306.05 32.3757C304.774 31.2593 303.247 30.6897 301.493 30.6897C299.739 30.6897 298.258 31.2821 296.936 32.444C295.638 33.5832 294.817 35.0642 294.521 36.8641Z" fill="#D8D8D8"/>
<path d="M319.014 51.309V27.5911H323.138V30.1657C324.482 28.0695 326.259 27.0215 328.515 27.0215C329.654 27.0215 330.884 27.3405 332.183 28.0012L330.246 31.715C329.471 31.1909 328.674 30.9175 327.831 30.9175C326.373 30.9175 325.279 31.4188 324.505 32.3985C323.593 33.6288 323.138 35.7477 323.138 38.8007V51.3318L319.014 51.309Z" fill="#D8D8D8"/>
<defs>
<linearGradient id="paint0_linear_1560_3227" x1="13.2576" y1="-0.00671882" x2="13.2576" y2="61.233" gradientUnits="userSpaceOnUse">
<stop stop-color="#F6B863"/>
<stop offset="1" stop-color="#E59D39"/>
</linearGradient>
<linearGradient id="paint1_linear_1560_3227" x1="31.0398" y1="6.86039" x2="31.0398" y2="68.0763" gradientUnits="userSpaceOnUse">
<stop stop-color="#F6B863"/>
<stop offset="1" stop-color="#E59D39"/>
</linearGradient>
</defs>
</svg>
